<svg width="45" height="45" viewBox="0 0 45 45" fill="none" xmlns="http://www.w3.org/2000/svg">
<circle cx="22.5" cy="22.5" r="22.5" fill="#38529F"/>
<path d="M27.5 27.5C27.942 27.5 28.366 27.6756 28.6785 27.9882C28.9911 28.3007 29.1667 28.7246 29.1667 29.1667C29.1667 29.6087 28.9911 30.0326 28.6785 30.3452C28.366 30.6577 27.942 30.8333 27.5 30.8333C27.058 30.8333 26.634 30.6577 26.3215 30.3452C26.0089 30.0326 25.8333 29.6087 25.8333 29.1667C25.8333 28.7246 26.0089 28.3007 26.3215 27.9882C26.634 27.6756 27.058 27.5 27.5 27.5ZM27.5 28.3333C27.279 28.3333 27.067 28.4211 26.9107 28.5774C26.7545 28.7337 26.6667 28.9457 26.6667 29.1667C26.6667 29.3877 26.7545 29.5996 26.9107 29.7559C27.067 29.9122 27.279 30 27.5 30C27.721 30 27.933 29.9122 28.0893 29.7559C28.2455 29.5996 28.3333 29.3877 28.3333 29.1667C28.3333 28.9457 28.2455 28.7337 28.0893 28.5774C27.933 28.4211 27.721 28.3333 27.5 28.3333ZM20 27.5C20.442 27.5 20.866 27.6756 21.1785 27.9882C21.4911 28.3007 21.6667 28.7246 21.6667 29.1667C21.6667 29.6087 21.4911 30.0326 21.1785 30.3452C20.866 30.6577 20.442 30.8333 20 30.8333C19.558 30.8333 19.134 30.6577 18.8215 30.3452C18.5089 30.0326 18.3333 29.6087 18.3333 29.1667C18.3333 28.7246 18.5089 28.3007 18.8215 27.9882C19.134 27.6756 19.558 27.5 20 27.5ZM20 28.3333C19.779 28.3333 19.567 28.4211 19.4107 28.5774C19.2545 28.7337 19.1667 28.9457 19.1667 29.1667C19.1667 29.3877 19.2545 29.5996 19.4107 29.7559C19.567 29.9122 19.779 30 20 30C20.221 30 20.433 29.9122 20.5893 29.7559C20.7455 29.5996 20.8333 29.3877 20.8333 29.1667C20.8333 28.9457 20.7455 28.7337 20.5893 28.5774C20.433 28.4211 20.221 28.3333 20 28.3333ZM29.1667 17.5H17.725L19.85 22.5H26.6667C26.9417 22.5 27.1833 22.3667 27.3333 22.1667L29.8333 18.8333C29.9417 18.6917 30 18.5167 30 18.3333C30 18.1123 29.9122 17.9004 29.7559 17.7441C29.5996 17.5878 29.3877 17.5 29.1667 17.5ZM26.6667 23.3333H19.8917L19.25 24.6333L19.1667 25C19.1667 25.221 19.2545 25.433 19.4107 25.5893C19.567 25.7455 19.779 25.8333 20 25.8333H29.1667V26.6667H20C19.558 26.6667 19.134 26.4911 18.8215 26.1785C18.5089 25.866 18.3333 25.442 18.3333 25C18.3331 24.7172 18.4048 24.4391 18.5417 24.1917L19.1417 22.9667L16.1167 15.8333H15V15H16.6667L17.375 16.6667H29.1667C29.6087 16.6667 30.0326 16.8423 30.3452 17.1548C30.6577 17.4674 30.8333 17.8913 30.8333 18.3333C30.8333 18.75 30.6917 19.1 30.4583 19.3833L28.0333 22.625C27.7333 23.05 27.2333 23.3333 26.6667 23.3333Z" fill="white"/>
</svg>
