<svg width="34" height="34" viewBox="0 0 34 34" fill="none" xmlns="http://www.w3.org/2000/svg">
<rect width="34" height="34" rx="17" fill="white"/>
<path d="M18.6929 12.182C18.2669 11.748 17.759 11.4027 17.1987 11.1661C16.6385 10.9295 16.0369 10.8063 15.4287 10.8035C14.8205 10.8007 14.2178 10.9184 13.6554 11.1498C13.0929 11.3813 12.5819 11.7219 12.1519 12.1519C11.7218 12.582 11.3812 13.093 11.1498 13.6554C10.9183 14.2178 10.8006 14.8206 10.8034 15.4287C10.8062 16.0369 10.9295 16.6385 11.1661 17.1988C11.4027 17.7591 11.748 18.2669 12.1819 18.693C13.0481 19.5433 14.2149 20.0173 15.4287 20.0117C16.6424 20.0061 17.8049 19.5215 18.6632 18.6632C19.5214 17.805 20.0061 16.6425 20.0116 15.4287C20.0172 14.215 19.5433 13.0481 18.6929 12.182ZM11.1804 11.1804C12.2661 10.0949 13.7255 9.46524 15.2601 9.42009C16.7948 9.37494 18.2887 9.91774 19.4363 10.9375C20.584 11.9573 21.2988 13.377 21.4345 14.9062C21.5702 16.4355 21.1165 17.9589 20.1663 19.1647L23.9523 22.9508L22.9507 23.9524L19.1647 20.1663C17.9584 21.1131 16.4364 21.5639 14.9091 21.4269C13.3818 21.2899 11.9643 20.5753 10.9457 19.429C9.92721 18.2827 9.38438 16.791 9.42797 15.2582C9.47157 13.7254 10.0983 12.267 11.1804 11.1804Z" fill="black"/>
</svg>
