<svg width="34" height="34" viewBox="0 0 34 34" fill="none" xmlns="http://www.w3.org/2000/svg">
    <rect width="34" height="34" rx="17" fill="white" />
    <path
        d="M20.3334 22C20.7754 22 21.1993 22.1756 21.5119 22.4882C21.8244 22.8007 22 23.2246 22 23.6667C22 24.1087 21.8244 24.5326 21.5119 24.8452C21.1993 25.1577 20.7754 25.3333 20.3334 25.3333C19.8913 25.3333 19.4674 25.1577 19.1549 24.8452C18.8423 24.5326 18.6667 24.1087 18.6667 23.6667C18.6667 23.2246 18.8423 22.8007 19.1549 22.4882C19.4674 22.1756 19.8913 22 20.3334 22ZM20.3334 22.8333C20.1124 22.8333 19.9004 22.9211 19.7441 23.0774C19.5878 23.2337 19.5 23.4457 19.5 23.6667C19.5 23.8877 19.5878 24.0996 19.7441 24.2559C19.9004 24.4122 20.1124 24.5 20.3334 24.5C20.5544 24.5 20.7663 24.4122 20.9226 24.2559C21.0789 24.0996 21.1667 23.8877 21.1667 23.6667C21.1667 23.4457 21.0789 23.2337 20.9226 23.0774C20.7663 22.9211 20.5544 22.8333 20.3334 22.8333ZM12.8334 22C13.2754 22 13.6993 22.1756 14.0119 22.4882C14.3244 22.8007 14.5 23.2246 14.5 23.6667C14.5 24.1087 14.3244 24.5326 14.0119 24.8452C13.6993 25.1577 13.2754 25.3333 12.8334 25.3333C12.3913 25.3333 11.9674 25.1577 11.6549 24.8452C11.3423 24.5326 11.1667 24.1087 11.1667 23.6667C11.1667 23.2246 11.3423 22.8007 11.6549 22.4882C11.9674 22.1756 12.3913 22 12.8334 22ZM12.8334 22.8333C12.6124 22.8333 12.4004 22.9211 12.2441 23.0774C12.0878 23.2337 12 23.4457 12 23.6667C12 23.8877 12.0878 24.0996 12.2441 24.2559C12.4004 24.4122 12.6124 24.5 12.8334 24.5C13.0544 24.5 13.2663 24.4122 13.4226 24.2559C13.5789 24.0996 13.6667 23.8877 13.6667 23.6667C13.6667 23.4457 13.5789 23.2337 13.4226 23.0774C13.2663 22.9211 13.0544 22.8333 12.8334 22.8333ZM22 12H10.5584L12.6834 17H19.5C19.775 17 20.0167 16.8667 20.1667 16.6667L22.6667 13.3333C22.775 13.1917 22.8334 13.0167 22.8334 12.8333C22.8334 12.6123 22.7456 12.4004 22.5893 12.2441C22.433 12.0878 22.2211 12 22 12ZM19.5 17.8333H12.725L12.0834 19.1333L12 19.5C12 19.721 12.0878 19.933 12.2441 20.0893C12.4004 20.2455 12.6124 20.3333 12.8334 20.3333H22V21.1667H12.8334C12.3913 21.1667 11.9674 20.9911 11.6549 20.6785C11.3423 20.366 11.1667 19.942 11.1667 19.5C11.1665 19.2172 11.2382 18.9391 11.375 18.6917L11.975 17.4667L8.95004 10.3333H7.83337V9.5H9.50004L10.2084 11.1667H22C22.4421 11.1667 22.866 11.3423 23.1786 11.6548C23.4911 11.9674 23.6667 12.3913 23.6667 12.8333C23.6667 13.25 23.525 13.6 23.2917 13.8833L20.8667 17.125C20.5667 17.55 20.0667 17.8333 19.5 17.8333Z"
        fill="black" stroke="black" />
</svg>