<svg xmlns="http://www.w3.org/2000/svg" xmlns:xlink="http://www.w3.org/1999/xlink"><symbol fill="currentColor" viewBox="0 0 45 45" id="blue-cart"><circle cx="22.5" cy="22.5" r="22.5"/><path d="M27.5 27.5a1.666 1.666 0 1 1 0 3.333 1.666 1.666 0 0 1 0-3.333Zm0 .833a.833.833 0 1 0 0 1.667.833.833 0 0 0 0-1.667ZM20 27.5a1.666 1.666 0 1 1 0 3.333 1.666 1.666 0 0 1 0-3.333Zm0 .833A.833.833 0 1 0 20 30a.833.833 0 0 0 0-1.667ZM29.167 17.5H17.725l2.125 5h6.817a.832.832 0 0 0 .666-.333l2.5-3.334a.833.833 0 0 0-.667-1.333Zm-2.5 5.833h-6.775l-.642 1.3-.083.367a.834.834 0 0 0 .833.833h9.167v.834H20a1.666 1.666 0 0 1-1.458-2.475l.6-1.225-3.025-7.134H15V15h1.667l.708 1.667h11.792a1.667 1.667 0 0 1 1.666 1.666c0 .417-.141.767-.375 1.05l-2.425 3.242c-.3.425-.8.708-1.366.708Z"/></symbol><symbol fill="currentColor" viewBox="0 0 45 45" id="blue-ref"><circle cx="22.5" cy="22.5" r="22.5"/><path d="m16.196 16 12.168 12.02M28.491 18.354v10M18.369 28.354H28.49" stroke="#fff" stroke-linecap="round"/></symbol><symbol viewBox="0 0 24 24" fill="currentColor" id="cart"><path d="M16 18a2 2 0 0 1 2 2 2 2 0 0 1-2 2 2 2 0 0 1-2-2 2 2 0 0 1 2-2m0 1a1 1 0 0 0-1 1 1 1 0 0 0 1 1 1 1 0 0 0 1-1 1 1 0 0 0-1-1m-9-1a2 2 0 0 1 2 2 2 2 0 0 1-2 2 2 2 0 0 1-2-2 2 2 0 0 1 2-2m0 1a1 1 0 0 0-1 1 1 1 0 0 0 1 1 1 1 0 0 0 1-1 1 1 0 0 0-1-1M18 6H4.27l2.55 6H15c.33 0 .62-.16.8-.4l3-4c.13-.17.2-.38.2-.6a1 1 0 0 0-1-1m-3 7H6.87l-.77 1.56L6 15a1 1 0 0 0 1 1h11v1H7a2 2 0 0 1-2-2 2 2 0 0 1 .25-.97l.72-1.47L2.34 4H1V3h2l.85 2H18a2 2 0 0 1 2 2c0 .5-.17.92-.45 1.26l-2.91 3.89c-.36.51-.96.85-1.64.85Z"/></symbol><symbol viewBox="0 0 24 24" fill="currentColor" id="cart-black"><path d="M16 18a2 2 0 0 1 2 2 2 2 0 0 1-2 2 2 2 0 0 1-2-2 2 2 0 0 1 2-2m0 1a1 1 0 0 0-1 1 1 1 0 0 0 1 1 1 1 0 0 0 1-1 1 1 0 0 0-1-1m-9-1a2 2 0 0 1 2 2 2 2 0 0 1-2 2 2 2 0 0 1-2-2 2 2 0 0 1 2-2m0 1a1 1 0 0 0-1 1 1 1 0 0 0 1 1 1 1 0 0 0 1-1 1 1 0 0 0-1-1M18 6H4.27l2.55 6H15c.33 0 .62-.16.8-.4l3-4c.13-.17.2-.38.2-.6a1 1 0 0 0-1-1m-3 7H6.87l-.77 1.56L6 15a1 1 0 0 0 1 1h11v1H7a2 2 0 0 1-2-2 2 2 0 0 1 .25-.97l.72-1.47L2.34 4H1V3h2l.85 2H18a2 2 0 0 1 2 2c0 .5-.17.92-.45 1.26l-2.91 3.89c-.36.51-.96.85-1.64.85Z"/></symbol><symbol fill="currentColor" viewBox="0 0 34 34" id="search"><rect width="34" height="34" rx="17"/><path d="M18.693 12.182a4.603 4.603 0 0 0-7.89 3.247 4.605 4.605 0 1 0 7.89-3.247ZM11.18 11.18a6.02 6.02 0 0 1 8.986 7.985l3.786 3.786-1.001 1.001-3.786-3.786a6.021 6.021 0 0 1-7.985-8.986Z"/></symbol><symbol fill="currentColor" viewBox="0 0 34 34" id="white-cart"><rect width="34" height="34" rx="17"/><path d="M20.333 22a1.667 1.667 0 1 1 0 3.333 1.667 1.667 0 0 1 0-3.333Zm0 .833a.833.833 0 1 0 0 1.667.833.833 0 0 0 0-1.667Zm-7.5-.833a1.667 1.667 0 1 1 0 3.333 1.667 1.667 0 0 1 0-3.333Zm0 .833a.833.833 0 1 0 0 1.667.833.833 0 0 0 0-1.667ZM22 12H10.558l2.125 5H19.5a.832.832 0 0 0 .667-.333l2.5-3.334A.833.833 0 0 0 22 12Zm-2.5 5.833h-6.775l-.642 1.3L12 19.5a.833.833 0 0 0 .833.833H22v.834h-9.167a1.666 1.666 0 0 1-1.458-2.475l.6-1.225-3.025-7.134H7.833V9.5H9.5l.708 1.667H22a1.667 1.667 0 0 1 1.667 1.666c0 .417-.142.767-.375 1.05l-2.425 3.242c-.3.425-.8.708-1.367.708Z"/></symbol><symbol fill="currentColor" viewBox="0 0 45 45" id="white-ref"><circle cx="22.5" cy="22.5" r="22.5"/><path d="m16 16 12.168 12.02M28.295 18.354v10M18.173 28.354h10.122" stroke="#38529F" stroke-linecap="round"/></symbol></svg>